PathFileType	4	(X/Y/Z)	C:/Users/beibeiliu/ov580/test_trc/User2\sequence.3_training_dense_left.trc
DataRate	CameraRate	NumFrames	NumMarkers	Units	OrigDataRate	OrigDataStartFrame	OrigNumFrames
120	120	10	19	mm	120	129	343
Frame#	Time	ThumbCMC			ThumbMCP			ThumbIP			ThumbTip			IndexMCP			IndexPIP			IndexTip			MiddleMCP			MiddlePIP			MiddleTip			RingMCP			RingPIP			RingTip			PinkyMCP			PinkyPIP			PinkyTip			BackHand1			BackHand2			BackHand3	
		X0	Y0	Z0	X1	Y1	Z1	X2	Y2	Z2	X3	Y3	Z3	X4	Y4	Z4	X5	Y5	Z5	X6	Y6	Z6	X7	Y7	Z7	X8	Y8	Z8	X9	Y9	Z9	X10	Y10	Z10	X11	Y11	Z11	X12	Y12	Z12	X13	Y13	Z13	X14	Y14	Z14	X15	Y15	Z15	X16	Y16	Z16	X17	Y17	Z17	X18	Y18	Z18	
128	1.06667	-193.576	79.1428	94.4809	-157.922	81.6962	77.4254	-128.759	63.5505	62.2023	-113.914	39.4958	61.1586	-161.701	37.6605	36.6713	-133.424	50.7922	47.6871	-152.374	64.6907	71.9158	-148.301	20.4906	46.4331	-125.165	40.4165	62.1379	-154.906	49.9195	88.1916	-136.772	11.1676	66.0736	-121.651	30.9676	80.104	-152.059	47.5965	100.212	-141.524	3.33265	86.9873	-126.545	31.7267	102.874	-158.537	42.7927	112.683	-198.718	7.45992	94.4228	-219.109	18.7087	123.28	-220.178	42.84	91.4428	
129	1.075	-194.795	78.5615	91.7891	-159.832	78.3102	75.199	-130.606	59.6346	57.415	-119.336	38.4565	58.9276	-167.173	39.6012	32.3576	-136.727	51.5831	44.7001	-154.71	63.6702	69.3152	-154.602	16.6128	45.0579	-129.18	37.8647	58.8181	-156.784	49.5243	85.1029	-141.412	9.01133	63.4576	-124.326	29.4942	77.895	-152.135	45.1744	97.4023	-142.387	-0.168327	84.1393	-129.283	30.0628	95.6615	-158.611	42.8083	109.382	-202.825	6.831	92.7316	-221.532	19.843	119.868	-220.849	43.135	87.3516	
130	1.08333	-196.3	75.8787	87.8868	-162.34	75.1526	67.4838	-134.542	57.574	51.9087	-122.771	32.2681	49.276	-174	38.7439	27.6046	-141.852	46.4082	37.6862	-161.312	59.0374	66.9837	-161.867	17.678	37.0363	-134.032	33.341	50.9702	-158.876	47.6917	78.5268	-151.618	3.86374	57.8754	-131.058	30.2657	69.5226	-157.548	43.8846	91.8647	-147.723	-0.0459726	76.2726	-133.882	25.9053	87.7077	-159.686	38.34	104.843	-206.797	3.22202	87.5456	-221.452	18.6357	118.755	-225.438	43.1275	88.775	
131	1.09167	-198.739	73.9701	88.0203	-167.63	71.7723	64.135	-142.756	56.5052	44.2293	-132.238	27.9205	41.0591	-181.904	34.7121	22.3836	-152.413	41.7011	26.5409	-164.242	53.1064	59.6793	-171.529	13.3615	30.1821	-142.953	29.3722	42.7005	-166.901	43.2971	73.8598	-159.373	1.97473	50.2813	-136.315	21.8786	62.3289	-157.702	37.444	86.24	-158.168	-3.41013	67.7802	-138.927	20.0148	80.6885	-163.615	34.7711	101.354	-212.603	2.88449	89.2523	-226.56	19.2367	117.119	-228.816	42.0265	89.8191	
132	1.1	-201.623	72.7433	83.7958	-172.466	70.2124	55.2784	-153.966	50.5418	32.1618	-145.402	24.5764	28.1329	-196.976	31.5586	19.9583	-165.225	35.4626	21.1247	-171.888	51.7286	52.2781	-185.854	11.5021	24.3923	-155.253	23.2187	34.9618	-175.116	40.5141	67.9489	-173.26	1.68002	39.4302	-147.96	17.2868	52.1437	-165.239	36.2149	76.066	-169.878	-7.36721	59.4851	-148.269	16.2003	69.9043	-168.8	28.7501	92.5308	-219.513	5.372	84.7481	-228.474	21.5457	121.095	-234.164	43.33	85.4279	
133	1.10833	-202.949	74.758	81.0872	-179.427	70.1399	53.0282	-165.72	48.1109	26.9853	-161.864	17.5752	16.6781	-213.741	34.841	18.1438	-181.579	34.0452	14.5665	-182.014	50.4295	48.0246	-203.645	11.5939	22.5657	-170.865	23.4769	24.3149	-179.454	36.4732	61.705	-190.167	-5.0339	38.081	-162.39	12.6077	39.8825	-174.185	32.49	70.6749	-181.759	-13.3525	54.8018	-155.992	7.57781	60.5544	-171.642	24.9545	82.2757	-229.39	7.61162	90.1498	-229.496	20.9405	122.365	-237.118	44.8651	93.2654	
134	1.11667	-203.597	73.5225	85.9652	-187.264	63.8163	50.9844	-177.75	45.2736	23.159	-174.85	18.9933	13.5448	-225.853	36.0508	20.324	-192.396	40.3427	12.0004	-189.427	47.9585	44.7862	-217.631	16.0416	21.5133	-183.429	20.0489	19.5237	-188.229	39.6949	57.3572	-201.874	-3.45344	34.8828	-172.667	12.4319	35.4702	-179.697	28.7009	69.8332	-190.835	-13.6803	48.2252	-166.939	9.64712	53.4014	-178.52	24.6446	79.0911	-232.457	6.83168	88.1414	-232.085	20.9735	120.761	-240.913	47.3436	95.1587	
135	1.125	-204.948	74.9604	89.6715	-189.02	67.9485	53.2776	-182.803	45.7373	22.2785	-181.147	19.7324	9.53771	-229.405	37.7225	19.7026	-199.165	37.1942	14.5734	-194.643	48.3921	47.9545	-223.911	17.5959	23.976	-190.977	23.5418	18.9751	-193.019	36.1306	61.6603	-207.049	2.90481	32.5023	-176.037	12.3526	36.9896	-183.133	30.6076	67.8353	-200.405	-10.8509	51.4956	-170.164	8.12454	52.8203	-178.116	22.7804	80.3308	-235.845	9.75356	92.3397	-229.32	16.132	123.766	-240.57	47.9732	99.5704	
136	1.13333	-205.912	70.1326	88.4464	-190.471	65.524	52.7127	-181.9	49.7501	24.5187	-182.905	19.6893	11.2033	-230.057	40.0215	20.8921	-200.403	37.7624	14.5961	-193.81	47.7619	47.9802	-224.383	18.659	24.4122	-189.897	25.3941	21.8427	-193.386	40.5269	60.004	-208.175	0.867222	36.4542	-179.664	11.4349	34.7752	-182.888	29.0852	70.7572	-197.044	-10.3025	48.5645	-169.517	5.80676	54.2283	-180.623	23.7358	83.9994	-234.873	11.6529	95.2854	-229.542	17.1876	126.675	-240.161	46.0138	101.45	
137	1.14167	-205.437	70.7221	91.2133	-187.233	68.2658	57.489	-180.564	46.3706	27.6199	-179.624	19.7999	16.6358	-229.516	41.5533	25.1835	-196.409	43.8652	15.265	-192.208	54.3837	49.081	-222.122	20.0083	28.8647	-185.553	26.6918	24.4208	-190.056	37.3895	63.7401	-205.326	-0.530767	38.883	-174.709	10.3389	39.0426	-182.128	31.4463	72.0543	-194.857	-8.89461	51.5814	-167.486	8.87364	57.9305	-175.969	24.1925	82.7311	-234.509	10.3474	95.6059	-227.438	18.6638	128.107	-240.472	48.7692	101.59	
